<svg  viewBox="0 0 13 13" xmlns="http://www.w3.org/2000/svg">
<path d="M5.23656 5.16263V9.49649H4.68812V5.75088H4.67838C4.44356 5.87843 3.96094 6.17339 3.65625 6.38217V5.81748C3.9979 5.57766 4.3539 5.35896 4.72225 5.16263H5.23656Z" />
<path fill-rule="evenodd" clip-rule="evenodd" d="M7.5855 9.57856C6.68444 9.57856 6.24 8.9562 6.20182 8.43618H6.75756C6.79169 8.7368 7.07119 9.10244 7.61068 9.10244C8.29644 9.10244 8.66775 8.41342 8.671 7.34419H8.64907C8.52475 7.68056 8.1315 7.98605 7.52538 7.98605C6.83313 7.98605 6.16362 7.49043 6.16362 6.54795C6.16362 5.62412 6.87131 5.07812 7.62369 5.07812C8.57594 5.07812 9.2105 5.67451 9.2105 7.2459C9.2105 8.71246 8.60763 9.57856 7.5855 9.57856ZM7.63913 7.51235C8.14694 7.51235 8.60112 7.11914 8.60112 6.55361C8.60112 5.87763 8.17294 5.55425 7.65863 5.55425C7.1825 5.55425 6.70963 5.86871 6.70963 6.53739C6.70963 7.20117 7.15081 7.51235 7.63913 7.51235Z" />
<path fill-rule="evenodd" clip-rule="evenodd" d="M3.13101 0.118969C3.05483 0.0427971 2.95149 0 2.84375 0C2.73601 0 2.63267 0.0427971 2.55649 0.118969C2.4803 0.19519 2.4375 0.298489 2.4375 0.40625V0.8125H1.625C1.19402 0.8125 0.7807 0.983688 0.47595 1.28848C0.171207 1.59321 0 2.0065 0 2.4375V11.375C0 11.806 0.171207 12.2193 0.47595 12.524C0.7807 12.8288 1.19402 13 1.625 13H11.375C11.806 13 12.2193 12.8288 12.524 12.524C12.8288 12.2193 13 11.806 13 11.375V2.4375C13 2.0065 12.8288 1.59321 12.524 1.28848C12.2193 0.983688 11.806 0.8125 11.375 0.8125H10.5625V0.40625C10.5625 0.298489 10.5197 0.19519 10.4435 0.118969C10.3673 0.0427971 10.264 0 10.1562 0C10.0485 0 9.94517 0.0427971 9.86899 0.118969C9.7928 0.19519 9.75 0.298489 9.75 0.40625V0.8125H3.25V0.40625C3.25 0.298489 3.2072 0.19519 3.13101 0.118969ZM0.8125 11.375V3.25H12.1875V11.375C12.1875 11.5905 12.1019 11.7972 11.9495 11.9495C11.7971 12.1019 11.5905 12.1875 11.375 12.1875H1.625C1.40951 12.1875 1.20285 12.1019 1.05048 11.9495C0.8981 11.7972 0.8125 11.5905 0.8125 11.375Z" />
</svg>
