<svg viewBox="0 0 12 12" fill="none" xmlns="http://www.w3.org/2000/svg">
<path fill-rule="evenodd" clip-rule="evenodd" d="M2.07003 0.315027C2.45122 0.166707 2.8877 0.0654267 3.52646 0.0363334C4.16657 0.00676674 4.37125 0 6.00073 0C7.6302 0 7.83473 0.00724674 8.47447 0.0363334C9.1128 0.0649467 9.549 0.166707 9.93093 0.315027C10.325 0.468193 10.6599 0.673153 10.9933 1.00709C11.3268 1.34103 11.5319 1.67544 11.6855 2.06995C11.8338 2.45112 11.9351 2.88753 11.9641 3.52632C11.9932 4.16607 12 4.37059 12 6C12 7.6294 11.9932 7.83347 11.9641 8.47367C11.9355 9.1124 11.8338 9.54867 11.6855 9.93007C11.5319 10.3245 11.3273 10.6595 10.9933 10.9929C10.6594 11.3263 10.325 11.5314 9.93047 11.685C9.549 11.8333 9.1128 11.9346 8.474 11.9637C7.83427 11.9932 7.62973 12 6.00027 12C4.37077 12 4.16657 11.9927 3.52646 11.9637C2.8877 11.9346 2.45194 11.8333 2.07003 11.685C1.67527 11.5314 1.34103 11.3262 1.00713 10.9929C0.673227 10.6597 0.468213 10.3245 0.315033 9.93007C0.166713 9.54867 0.0654268 9.11247 0.0363401 8.47367C0.00676675 7.83393 0 7.6294 0 6C0 4.37059 0.00676675 4.16607 0.0363401 3.52632C0.0654268 2.88759 0.166713 2.45136 0.315033 2.06995C0.468213 1.6752 0.67318 1.34049 1.00713 1.00709C1.34108 0.67368 1.67527 0.468193 2.07003 0.315027ZM5.99967 4C4.89527 4 4 4.89547 4 6C4 7.10453 4.89527 8 5.99967 8C7.10433 8 8 7.10433 8 6C8 4.89567 7.10433 4 5.99967 4ZM2.66667 6C2.66667 4.15936 4.15859 2.66667 5.99967 2.66667C7.84053 2.66667 9.33333 4.15915 9.33333 6C9.33333 7.84087 7.84053 9.33333 5.99967 9.33333C4.15859 9.33333 2.66667 7.84067 2.66667 6ZM10 2.66667C10.3682 2.66667 10.6667 2.36819 10.6667 2C10.6667 1.63181 10.3682 1.33333 10 1.33333C9.6318 1.33333 9.33333 1.63181 9.33333 2C9.33333 2.36819 9.6318 2.66667 10 2.66667Z" />
</svg>
