<svg viewBox="0 0 20 17" xmlns="http://www.w3.org/2000/svg">
<path d="M19.2309 6.40648C19.148 6.15855 18.9882 5.94022 18.7726 5.78011C18.5569 5.62 18.2954 5.52559 18.0224 5.50926L13.1057 5.18657L11.2848 0.818518C11.1853 0.578003 11.0123 0.371406 10.7879 0.225473C10.5636 0.0795413 10.2984 0.000993936 10.0266 0C9.75485 0.000993936 9.48963 0.0795413 9.26532 0.225473C9.04101 0.371406 8.86794 0.578003 8.7685 0.818518L6.91442 5.21018L2.03088 5.50926C1.75816 5.52665 1.49719 5.62145 1.28174 5.78141C1.0663 5.94137 0.906291 6.15911 0.822417 6.40648C0.736285 6.65764 0.731253 6.92758 0.807968 7.18149C0.884684 7.43539 1.03963 7.66163 1.25283 7.83102L5.01067 10.8532L3.89325 15.0324C3.81594 15.3151 3.82985 15.6134 3.93318 15.8885C4.03651 16.1636 4.22448 16.4028 4.47265 16.575C4.71354 16.7394 5.00054 16.8317 5.29692 16.8401C5.59331 16.8485 5.88559 16.7727 6.13636 16.6222L10.0184 14.2847H10.0349L14.2149 16.7954C14.4293 16.9279 14.6793 16.9989 14.935 17C15.1438 16.9984 15.3494 16.9514 15.5361 16.8624C15.7228 16.7735 15.8855 16.645 16.0118 16.4869C16.1381 16.3288 16.2246 16.1453 16.2646 15.9505C16.3047 15.7556 16.2972 15.5546 16.2428 15.363L15.0592 10.7903L18.8004 7.83102C19.0136 7.66163 19.1686 7.43539 19.2453 7.18149C19.322 6.92758 19.317 6.65764 19.2309 6.40648Z" />
</svg>
